<svg width="1507" height="1507" viewBox="0 0 1507 1507" fill="none" xmlns="http://www.w3.org/2000/svg">
<g clip-path="url(#clip0_53115_42898)">
<mask id="mask0_53115_42898" style="mask-type:luminance" maskUnits="userSpaceOnUse" x="0" y="0" width="1507" height="1507">
<path d="M1507 0H0V1507H1507V0Z" fill="white"/>
</mask>
<g mask="url(#mask0_53115_42898)">
<path d="M1507 0H0V1507H1507V0Z" fill="url(#paint0_linear_53115_42898)"/>
<path d="M2052.78 760.192L1249.32 214.703L709.345 1010.04L1512.8 1555.53L2052.78 760.192Z" fill="black" fill-opacity="0.1"/>
<path opacity="0.6" d="M747.617 1377.49C1092.24 1377.49 1371.61 1098.12 1371.61 753.5C1371.61 408.879 1092.24 129.508 747.617 129.508C402.996 129.508 123.625 408.879 123.625 753.5C123.625 1098.12 402.996 1377.49 747.617 1377.49Z" stroke="white" stroke-width="139" stroke-dasharray="34 870"/>
<path d="M853.833 977.015C813.309 1031.9 734.698 1027.9 699.327 1002.57C671.442 982.593 500.653 860.284 429.63 809.423C367.605 765.005 339.969 618.105 350.174 605.383C360.379 592.659 504.191 576.536 563.65 622.643L726.194 748.693C732.776 753.796 742.277 752.431 747.139 745.667C842.142 613.484 982.993 411.39 1055.58 307.58C1091.13 256.745 1236.66 207.885 1254.51 220.532C1272.35 233.179 1297.73 360.472 1249.06 429.73C1107.52 631.17 891.152 926.472 853.833 977.015Z" fill="white"/>
<mask id="mask1_53115_42898" style="mask-type:luminance" maskUnits="userSpaceOnUse" x="161" y="1003" width="319" height="319">
<path d="M479.766 1003.69H161.883V1321.57H479.766V1003.69Z" fill="white"/>
</mask>
<g mask="url(#mask1_53115_42898)">
<path d="M216.519 1003.69C208.261 1003.69 201.618 1010.33 201.618 1018.59C201.618 1042.74 216.146 1055.47 225.894 1063.97L226.577 1064.59C236.697 1073.41 241.354 1078.13 241.354 1088.13C241.354 1096.38 247.997 1103.03 256.254 1103.03C264.512 1103.03 271.155 1096.38 271.155 1088.13C271.155 1063.97 256.627 1051.25 246.879 1042.74L246.196 1042.12C236.076 1033.3 231.42 1028.59 231.42 1018.59C231.42 1010.33 224.777 1003.69 216.519 1003.69ZM181.75 1122.89C170.761 1122.89 161.883 1131.77 161.883 1142.76V1261.97C161.883 1294.87 188.58 1321.57 221.486 1321.57H340.692C373.599 1321.57 400.295 1294.87 400.295 1261.97H410.229C448.66 1261.97 479.766 1230.86 479.766 1192.43C479.766 1154 448.66 1122.89 410.229 1122.89H380.427H181.75ZM400.295 1162.63H410.229C426.682 1162.63 440.03 1175.98 440.03 1192.43C440.03 1208.88 426.682 1222.23 410.229 1222.23H400.295V1162.63ZM300.957 1018.59C300.957 1010.33 294.313 1003.69 286.056 1003.69C277.798 1003.69 271.155 1010.33 271.155 1018.59C271.155 1042.74 285.683 1055.47 295.432 1063.97L296.115 1064.59C306.234 1073.41 310.89 1078.13 310.89 1088.13C310.89 1096.38 317.534 1103.03 325.793 1103.03C334.049 1103.03 340.692 1096.38 340.692 1088.13C340.692 1063.97 326.163 1051.25 316.415 1042.74L315.732 1042.12C305.613 1033.3 300.957 1028.59 300.957 1018.59Z" fill="white"/>
</g>
<mask id="mask2_53115_42898" style="mask-type:luminance" maskUnits="userSpaceOnUse" x="1047" y="1018" width="324" height="289">
<path d="M1370.74 1021.05L1050.2 1018.4L1047.84 1304.13L1368.37 1306.78L1370.74 1021.05Z" fill="white"/>
</mask>
<g mask="url(#mask2_53115_42898)">
<path d="M1186.94 1282.68C1192.93 1284.85 1199.42 1280.49 1199.47 1274.13L1201.21 1063.52C1201.23 1061.17 1200.36 1058.82 1198.48 1057.35C1187.65 1048.56 1162.7 1037.19 1130.2 1036.92C1102.1 1036.69 1075.77 1043.89 1060.03 1049.79C1053.72 1052.2 1049.88 1058.41 1049.83 1065.17L1048.12 1271.82C1048.06 1278.46 1055.15 1283.15 1061.45 1281.14C1079.03 1275.42 1106.86 1268.9 1128.28 1269.08C1147.14 1269.23 1172.18 1277.25 1186.94 1282.68ZM1229.67 1283.03C1244.52 1277.85 1269.68 1270.25 1288.55 1270.4C1309.97 1270.58 1337.68 1277.56 1355.16 1283.56C1361.44 1285.74 1368.6 1281.11 1368.65 1274.47L1370.36 1067.82C1370.42 1061.06 1366.68 1054.78 1360.41 1052.33C1344.77 1046.12 1318.57 1038.48 1290.46 1038.24C1257.97 1037.98 1232.83 1048.93 1221.85 1057.55C1220 1058.98 1219.04 1061.32 1219.02 1063.66L1217.28 1274.28C1217.23 1280.64 1223.7 1285.1 1229.67 1283.03Z" fill="white"/>
</g>
<path d="M318.985 190.581H405.078C407.709 190.581 409.861 192.733 409.861 195.364V219.278H314.202V195.364C314.202 192.733 316.353 190.581 318.985 190.581ZM285.504 195.364V219.278H247.24C226.135 219.278 208.977 236.437 208.977 257.542V314.938H323.768H400.295H515.086V257.542C515.086 236.437 497.926 219.278 476.822 219.278H438.559V195.364C438.559 176.889 423.553 161.883 405.078 161.883H318.985C300.509 161.883 285.504 176.889 285.504 195.364ZM515.086 334.069H400.295V353.201C400.295 363.783 391.744 372.333 381.163 372.333H342.899C332.318 372.333 323.768 363.783 323.768 353.201V334.069H208.977V410.597C208.977 431.701 226.135 448.86 247.24 448.86H476.822C497.926 448.86 515.086 431.701 515.086 410.597V334.069Z" fill="white"/>
<path d="M763.804 971.311C787.375 971.311 806.482 952.203 806.482 928.632C806.482 905.061 787.375 885.953 763.804 885.953C740.233 885.953 721.125 905.061 721.125 928.632C721.125 952.203 740.233 971.311 763.804 971.311Z" fill="#EF9500"/>
<path d="M2052.78 760.187L1249.3 214.68L709.322 1010.02L1512.81 1555.52L2052.78 760.187Z" fill="black" fill-opacity="0.1"/>
</g>
</g>
<defs>
<linearGradient id="paint0_linear_53115_42898" x1="130.98" y1="58.8672" x2="1454.02" y2="1476.09" gradientUnits="userSpaceOnUse">
<stop stop-color="#FF7C02"/>
<stop offset="1" stop-color="#F23A00"/>
</linearGradient>
<clipPath id="clip0_53115_42898">
<rect width="1507" height="1507" rx="372" fill="white"/>
</clipPath>
</defs>
</svg>
