<svg width="1077" height="795" viewBox="0 0 1077 795" fill="none" xmlns="http://www.w3.org/2000/svg">
<path d="M1059.3 265.067C1048.97 274.503 1033.92 285.414 1026.25 289.542L1012.38 297.209L1010.02 288.952L1007.95 280.696L1006.18 291.017C1004.71 301.043 1004.12 301.632 984.053 306.94C958.973 313.723 915.007 314.902 899.074 309.005C875.763 301.043 855.994 275.388 855.699 253.861C855.699 236.757 862.19 236.463 875.173 252.976C893.763 276.862 910.286 282.17 924.45 269.195C928.581 265.361 933.007 258.579 934.187 254.451C936.547 244.13 930.351 227.321 921.499 220.244C913.237 213.756 893.763 212.282 881.075 217.295C874.288 219.949 873.403 219.359 870.452 209.038C866.321 193.409 866.616 186.037 873.403 173.062C881.665 156.843 884.91 155.959 893.763 167.459C897.893 173.062 905.27 181.319 910.286 185.742C925.04 199.307 964.579 207.564 973.136 199.012C978.447 193.704 977.267 178.665 971.07 168.639C956.022 144.163 931.826 130.303 907.336 132.368C890.222 133.842 888.156 132.368 888.156 118.213C888.156 94.6222 927.695 58.0562 953.071 58.0562C966.349 58.0562 975.496 76.3392 977.267 107.302C977.857 115.854 979.037 122.931 980.513 122.931C984.053 122.931 982.873 92.2631 978.447 77.8136L974.316 64.2489L982.283 68.0824C990.84 72.8006 1038.64 115.559 1051.03 130.009C1055.46 135.022 1059 137.381 1059.3 135.317C1059.3 132.957 1043.95 115.559 1025.07 96.3915C999.987 70.7364 987.004 59.8256 976.087 55.1074C967.235 51.2739 954.547 41.8375 944.219 31.2216C922.679 9.39997 899.369 -2.39549 882.255 0.553375C861.6 4.09201 831.208 26.7983 799.046 63.0693L787.833 75.4545L777.505 71.3261C756.261 62.1846 725.278 67.7875 701.083 84.3011C689.575 92.2631 685.444 93.7375 676.297 92.2631C670.396 91.3784 656.823 92.2631 646.2 94.6222C635.578 96.9813 627.021 98.4557 627.021 98.1608C626.726 98.1608 622.89 91.9682 618.169 84.8909C608.136 69.8517 585.416 50.979 568.007 43.017C545.582 32.696 516.96 36.8244 499.256 53.0432C494.24 57.7613 486.863 59.8255 471.815 61.3C456.176 62.7744 445.849 65.7233 430.8 73.3903C410.145 84.0062 407.195 84.3011 407.195 75.7494C407.195 65.7233 389.785 43.6068 372.672 32.4011C345.525 14.1181 332.542 9.98972 300.97 9.10506C285.626 8.81017 262.611 6.45108 249.628 3.50221C193.565 -8.58814 167.304 10.2846 163.173 65.4284C161.402 90.1988 167.009 116.444 180.287 146.227C185.598 157.728 190.319 166.869 190.909 166.28C191.499 165.395 188.254 154.484 183.533 141.804C166.419 94.917 163.763 54.5176 175.861 29.7471C184.713 11.759 197.401 4.97664 222.482 5.27153C233.989 5.27153 248.153 7.04085 253.759 9.39994L264.086 13.2335L255.234 16.4772C227.498 27.388 209.499 51.8636 209.499 78.6983C209.499 91.6733 210.679 95.2119 218.056 102.584C222.777 107.302 229.268 111.136 232.514 111.136C240.776 111.136 242.251 114.085 237.53 121.162C234.875 124.701 233.104 133.842 233.104 143.868C233.104 164.805 242.841 178.96 266.152 193.114C298.019 211.987 330.772 212.872 356.738 195.473L371.491 185.447L376.212 197.832C384.179 217.295 382.999 234.398 371.786 250.617C361.754 265.361 348.476 276.862 336.083 281.875C329.001 284.529 326.936 283.35 313.953 270.08C284.741 240.001 235.17 213.461 218.351 218.769C204.187 223.193 205.368 242.065 221.006 263.592C239.301 288.657 271.168 301.632 309.232 299.273L328.411 298.094L332.542 308.12C336.968 318.736 334.903 323.159 325.756 323.454C318.674 323.454 312.182 334.66 313.363 345.865C314.248 357.071 313.953 357.071 298.019 362.674C277.364 369.751 244.022 372.405 227.793 367.982C213.039 363.854 197.106 349.109 192.68 334.955C190.024 326.993 189.434 326.403 189.139 331.711C188.844 335.544 190.319 341.147 192.09 344.391C194.45 349.109 192.68 348.519 182.942 341.442L170.845 332.596L169.959 302.222C169.369 285.414 167.599 268.605 166.124 264.772C163.763 259.169 164.943 252.976 170.55 238.232C181.172 209.038 181.172 204.91 170.55 225.552C160.222 245.014 157.862 247.078 154.911 237.937C151.96 228.501 127.47 209.038 110.946 202.845C102.389 199.602 84.9797 194.884 72.5868 192.524C45.1455 186.627 29.8019 189.576 17.409 202.845C4.72109 216.41 1.47533 229.68 5.90136 249.143C9.14711 264.182 21.54 288.068 26.2611 288.068C27.1463 288.363 30.9822 290.722 34.8181 293.965C41.3096 299.273 41.3096 299.863 36.5885 307.235C30.392 316.672 32.1625 337.314 40.1293 347.635C54.8827 367.392 80.8488 378.303 106.815 375.354C128.65 373.29 143.993 365.328 157.271 349.994C165.828 339.968 168.779 338.198 173.205 340.557C183.533 346.16 212.744 379.188 218.351 391.868C228.383 414.279 223.957 442.588 207.433 461.166L201.532 467.654L186.188 453.204C164.058 432.562 118.618 411.92 94.717 411.92C62.8496 411.92 56.3581 444.947 82.3241 474.141C109.765 505.399 146.649 513.361 181.467 495.963C191.204 491.244 200.056 486.821 201.237 486.231C202.417 485.642 204.187 489.77 205.073 495.373C206.843 503.63 205.663 507.758 200.056 515.13C194.45 523.092 193.27 528.105 193.27 547.863C193.27 565.261 192.09 571.454 189.139 572.633C184.418 574.402 169.074 561.133 166.419 552.876C164.648 546.388 160.517 546.093 158.452 551.696C157.567 554.055 160.517 561.427 165.533 567.915C170.255 574.697 174.09 580.595 174.09 581.48C174.09 583.249 157.567 591.801 154.321 591.801C152.845 591.801 145.764 583.544 138.682 573.813C111.536 536.657 71.9967 514.835 61.3742 531.054C57.2433 536.952 59.0137 555.825 64.62 569.095C74.9474 593.275 103.274 609.494 134.846 609.494C146.354 609.494 150.485 610.674 150.485 613.622C150.485 615.981 149.01 618.341 146.944 618.93C144.288 619.815 144.584 623.354 148.124 632.79C152.55 643.701 152.55 646.945 149.305 654.907C145.174 665.228 128.945 680.267 122.453 680.267C120.093 680.267 116.847 677.908 115.077 675.254C112.421 670.535 112.126 670.83 112.716 677.023C113.306 682.626 111.831 684.69 104.749 686.754C76.1276 695.011 31.8674 672.895 6.49148 637.508C1.47531 630.431 0.295041 629.841 -2.77246e-05 634.264C-2.80339e-05 641.342 39.5392 680.562 54.5876 687.934C63.4397 692.062 72.5868 693.537 92.3564 693.537C106.52 693.537 118.027 694.421 118.027 695.306C118.027 696.191 122.158 702.973 127.174 710.64C151.665 747.796 217.17 757.527 236.055 726.859C240.776 719.487 241.956 713.884 240.776 703.858L239.301 690.588L243.727 702.678C257.89 741.898 311.297 766.668 356.148 754.873C377.393 749.565 386.54 744.847 397.162 733.936C404.834 726.564 408.67 725.384 429.325 723.615C447.324 722.141 457.061 719.487 470.044 712.704L486.863 703.858L486.863 712.999C486.863 730.692 498.961 745.732 521.976 755.758C530.533 759.591 539.385 762.835 541.451 762.835C543.516 762.835 547.942 767.553 551.483 773.451C571.548 807.363 636.168 800.286 679.838 759.001L694.886 745.142L673.051 759.886C644.134 779.349 624.66 786.426 599.284 786.426C583.35 786.426 577.154 784.951 569.482 779.938C554.139 769.322 555.614 766.963 577.449 766.668C612.857 766.374 628.496 754.283 628.496 727.743C628.496 713.294 621.709 707.691 598.989 704.153C579.81 701.204 566.236 704.447 554.139 715.358C546.762 721.846 544.696 726.269 543.516 738.654C542.336 752.809 541.746 753.988 535.844 752.219C525.517 749.27 511.059 739.244 504.567 731.282C496.895 721.256 496.6 700.909 503.977 694.126C511.059 687.639 516.96 687.934 531.123 695.011C550.893 705.037 557.975 701.793 544.401 689.113C540.27 685.28 537.025 681.446 537.025 680.562C537.025 679.382 543.811 676.433 552.073 673.484C560.335 670.535 572.728 662.868 579.514 656.381L592.202 645.175L615.218 662.574C627.906 672.305 648.265 685.28 660.363 691.472C681.903 701.793 684.264 702.383 714.066 702.678C758.916 702.973 775.44 705.922 787.833 715.948C793.439 720.371 804.652 727.154 812.324 730.397C826.192 736.59 826.487 736.885 821.766 742.193C813.209 751.629 797.865 754.873 768.949 753.399C741.507 752.219 726.754 747.501 714.656 736.295C706.689 728.628 704.033 728.923 708.164 736.295C714.361 747.796 739.737 757.527 767.473 759.296C795.8 760.771 811.438 757.232 823.241 746.616C829.733 740.718 834.454 739.834 858.944 738.654C884.025 737.77 889.041 736.59 899.664 729.513C913.237 720.371 926.515 701.499 926.515 690.883C926.515 679.087 929.761 674.369 938.023 674.369C945.99 674.369 966.054 665.817 973.726 659.035C982.873 651.368 991.43 636.329 995.561 620.995C999.102 605.955 1000.58 604.481 1015.33 596.814C1024.18 592.096 1035.4 584.429 1040.71 579.416C1057.82 562.607 1077 518.669 1077 495.373C1077 482.398 1071.98 485.347 1069.62 499.796C1062.54 541.375 1046.02 567.03 1017.99 579.71C999.987 587.967 995.561 587.378 992.905 577.941C990.25 566.441 977.267 544.914 968.12 536.362C950.711 519.848 915.302 509.822 906.45 518.669C896.418 528.695 908.221 563.787 928.876 585.018C940.973 597.404 956.907 603.596 976.382 603.596C989.955 603.596 991.135 606.545 985.234 624.533C978.447 644.291 956.907 659.33 935.072 659.625C925.04 659.625 924.45 658.74 917.663 642.816C907.336 618.046 888.451 600.353 863.666 592.096C852.748 588.262 841.24 586.198 837.995 587.378C825.602 591.211 826.782 614.802 840.355 636.329C850.092 651.368 874.878 666.407 899.369 671.715C914.417 674.664 914.712 674.959 914.712 685.575C914.712 712.114 891.402 728.333 854.518 728.038C831.798 727.744 813.209 722.436 799.341 712.409L790.488 706.217L811.438 699.14C834.159 691.472 863.075 677.613 861.01 675.549C860.125 674.959 850.682 678.203 839.765 683.216C829.142 688.229 812.619 694.126 803.176 696.486C786.653 700.909 786.358 700.909 781.341 694.421C778.391 690.588 776.03 687.049 776.03 686.164C776.03 685.28 781.931 678.792 789.308 671.715C796.39 664.933 804.062 654.612 805.832 649.304C809.373 639.867 809.963 639.572 817.34 643.406C821.766 645.765 826.782 649.599 828.847 651.958C831.208 654.612 834.159 656.676 835.929 656.676C840.06 656.676 823.536 639.572 817.34 637.508C814.684 636.624 811.143 630.431 809.373 623.354C807.307 616.571 802.291 607.725 797.57 603.596L789.308 596.224L795.8 603.596C799.636 607.725 803.472 615.687 804.357 621.289C806.422 630.431 806.127 631.021 799.341 628.957C769.539 620.7 764.522 620.11 758.326 625.713C750.654 632.495 750.654 646.06 758.031 665.522L763.637 680.267L755.965 684.395C737.081 693.832 732.655 693.242 717.311 678.792C701.673 664.343 690.46 642.521 689.87 625.713C689.575 618.046 691.936 613.033 700.198 603.891C706.099 597.109 711.705 587.672 712.885 581.48C717.902 554.645 705.804 525.156 684.264 511.002L671.871 502.745L678.362 496.552C684.264 490.36 684.854 490.36 698.427 495.373C706.394 498.027 716.426 500.386 721.147 500.386C727.639 500.386 732.36 503.335 740.032 512.181C753.015 527.516 773.079 537.837 799.341 541.965C817.045 544.914 822.061 544.619 835.339 540.491C860.715 531.939 866.616 525.746 878.714 493.899C881.075 488.001 884.615 485.642 894.058 484.167C909.991 481.513 928.581 466.769 937.138 450.255C940.973 442.883 945.695 426.664 947.76 413.984C951.596 391.573 951.891 390.983 966.349 380.072C986.709 364.738 999.102 347.045 1006.18 323.749C1011.2 307.235 1013.86 303.107 1022.12 298.684C1035.4 291.606 1063.43 268.015 1071.69 257.105C1075.82 251.797 1071.1 254.746 1059.3 265.067ZM993.201 339.673C986.119 352.353 979.332 360.315 967.825 368.277C951.891 379.483 947.17 380.072 947.17 371.226C947.17 364.738 930.941 330.826 926.81 328.172C922.089 325.223 924.155 334.365 931.531 349.994C935.072 357.366 938.613 367.392 939.793 372.405C941.859 383.316 937.728 385.38 912.647 385.38C877.534 385.38 848.912 372.7 832.388 349.994C823.831 337.904 823.831 337.904 828.257 324.929C832.388 312.543 837.995 309.3 837.995 319.326C837.995 324.929 858.649 347.045 870.157 353.827C883.14 361.494 881.37 358.251 867.796 349.109C861.305 344.686 852.453 335.25 848.322 328.172C841.83 316.967 840.65 311.364 840.65 293.081C840.65 280.99 842.421 267.426 844.191 262.707L847.732 254.156L849.797 263.002C861.6 314.902 913.532 335.839 980.218 315.787C993.496 311.954 1004.71 308.71 1005.3 308.71C1007.95 308.71 1002.35 322.569 993.201 339.673ZM973.136 587.378C954.252 584.429 937.728 576.172 928.876 565.851C919.433 554.645 910.286 531.939 912.647 525.451C915.598 518.374 929.466 520.143 945.99 529.875C960.743 538.131 969.595 548.747 980.218 571.159C988.184 587.967 987.299 589.737 973.136 587.378ZM951.006 190.165C935.072 191.64 903.205 170.408 898.484 154.779C896.123 147.997 897.008 146.817 904.68 146.227C923.859 144.458 945.104 154.779 956.317 171.882C963.989 183.383 962.513 188.986 951.006 190.165ZM917.073 57.4665C892.287 72.8006 878.419 95.8017 877.534 122.341C877.239 138.56 876.058 142.099 868.387 150.356C863.37 155.664 857.764 162.741 855.699 166.574C851.273 175.421 851.273 202.551 855.699 216.115C858.944 225.552 858.649 227.026 851.863 233.219C848.027 236.757 842.421 246.194 839.765 254.451C831.208 277.747 828.847 281.58 817.34 289.542C801.996 300.158 789.898 303.107 761.277 302.517C722.918 301.632 690.755 290.132 666.265 268.015C645.02 248.848 634.397 215.526 643.544 195.473C648.856 183.678 653.872 184.268 657.708 196.653C659.478 202.846 665.379 211.397 670.396 215.821C678.067 222.308 681.608 223.193 690.165 221.718C725.573 215.526 749.179 186.037 749.179 147.997C749.474 126.47 740.327 111.726 720.557 101.994C703.443 93.7375 703.738 91.6733 723.803 83.1216C735.901 78.1085 763.047 77.2239 774.26 81.6472C782.817 84.8909 783.997 90.4938 777.801 100.225C767.178 116.149 766.588 150.356 776.325 173.357C779.276 181.024 789.898 187.806 798.16 187.806C805.832 187.806 817.635 174.536 820.29 162.741C823.831 147.112 817.34 115.854 807.012 97.8659L799.046 84.596L809.668 67.4926C822.061 46.8506 849.502 20.0159 867.501 10.8744C889.927 -0.626171 911.762 5.86133 938.908 32.1062L954.547 47.4403L941.268 49.2096C933.892 50.0943 922.974 53.9278 917.073 57.4665ZM938.023 417.818C933.892 436.691 928.286 447.601 917.073 457.922C905.27 469.423 896.713 473.846 887.271 473.846C881.37 473.846 879.894 471.782 876.648 458.512C874.583 449.371 868.682 436.985 861.6 427.844C848.322 410.446 816.159 387.739 793.439 380.072L778.391 374.764L790.193 369.456C796.685 366.508 805.832 360.315 810.258 355.597L818.225 347.34L826.192 359.725C834.749 373.29 855.699 388.329 874.583 394.227C888.156 398.65 914.712 399.535 930.351 396.291C942.744 393.637 943.334 394.817 938.023 417.818ZM920.614 261.823C914.712 272.439 903.795 268.015 888.156 248.258C875.173 232.039 876.353 229.09 895.533 229.09C910.876 229.09 912.352 229.68 917.663 238.822C924.45 249.438 924.745 253.566 920.614 261.823ZM910.581 659.625C909.991 659.625 901.139 656.971 890.812 653.727C856.289 642.816 831.503 617.751 836.224 598.878C841.535 578.531 887.861 603.891 904.385 635.739C910.876 647.829 913.827 659.625 910.581 659.625ZM866.321 476.795C855.404 476.795 828.552 470.308 810.848 463.23L790.784 455.268L790.784 439.05C790.784 420.767 785.767 408.676 771.309 391.573L760.687 379.483L771.604 379.483C792.554 379.483 833.273 405.138 852.453 430.203C867.501 450.55 875.468 476.795 866.321 476.795ZM863.075 512.181C861.01 516.31 855.699 522.797 851.273 526.926C844.191 533.708 840.945 534.298 817.635 534.298C794.619 534.298 789.898 533.118 772.194 524.567C761.572 519.259 750.064 511.002 746.818 506.579L740.622 498.322L753.9 493.309C765.408 488.885 782.227 473.846 785.177 465.294C785.767 463.525 794.029 466.179 805.242 471.487C815.569 476.205 832.683 481.808 843.601 483.283C854.223 485.052 864.846 486.821 866.911 487.411C871.042 488.591 869.272 499.796 863.075 512.181ZM826.487 316.082L820.881 327.877L820.585 313.723C820.29 303.402 821.471 299.273 825.012 297.799C828.257 296.619 828.552 295.44 826.192 293.965C822.356 291.606 824.716 285.119 829.438 285.119C834.159 285.119 832.388 303.697 826.487 316.082ZM810.258 168.639C801.996 188.396 786.653 178.665 783.112 151.535C781.341 138.56 789.308 96.3915 793.734 96.3915C799.341 96.3915 813.799 135.022 814.094 151.83C814.389 155.369 812.324 163.036 810.258 168.639ZM802.291 351.468C786.653 365.328 779.866 367.687 753.605 367.687C741.507 367.687 731.77 368.867 731.77 370.636C731.77 372.11 736.491 375.649 742.097 378.303C750.064 382.137 752.13 384.496 750.949 388.624C747.704 398.65 755.67 426.369 765.998 441.704C772.194 451.14 775.44 459.102 774.555 462.346C771.899 470.897 753.015 485.642 744.753 485.642C737.671 485.642 737.081 484.757 738.261 473.846C739.147 464.41 738.261 462.051 734.425 462.051C728.819 462.051 725.869 467.948 725.869 478.859C725.869 486.231 725.278 486.231 711.41 485.052C691.05 482.988 658.003 461.756 632.037 434.037C604.595 404.548 594.858 376.239 606.366 359.725C610.497 353.827 611.382 353.827 624.365 357.661C632.037 360.02 645.905 361.789 655.052 361.789C669.215 361.789 672.756 362.969 679.248 370.046C687.215 378.303 695.772 393.637 699.607 406.022L701.673 413.394L701.968 405.433C702.263 395.996 693.116 373.585 686.329 367.982C679.248 362.084 680.428 360.02 693.411 354.712C706.984 349.404 730.295 329.057 736.196 317.556C740.032 309.889 741.802 309.594 768.063 307.825C783.702 306.94 799.636 304.286 804.357 301.927L812.914 297.504L813.504 319.031L814.094 340.852L802.291 351.468ZM789.308 661.099C782.227 668.471 774.85 674.369 773.079 674.369C768.063 674.369 761.277 655.496 761.277 642.226C761.277 631.905 762.457 629.841 768.358 628.367C774.555 626.892 792.554 630.726 800.521 635.149C806.127 638.393 801.406 649.009 789.308 661.099ZM773.079 439.344C762.162 427.254 750.654 391.278 757.736 391.278C766.293 391.278 781.636 420.767 781.636 436.985L781.636 448.781L773.079 439.344ZM755.965 699.434C751.835 697.96 752.72 696.78 759.801 693.832C767.178 690.588 769.244 690.883 772.194 694.716C775.145 698.55 774.555 699.729 768.063 700.319C764.227 700.909 758.621 700.614 755.965 699.434ZM742.097 168.934C739.737 176.896 734.13 187.806 729.704 193.409L721.147 203.14L709.935 195.473C699.017 188.101 673.641 178.96 664.494 178.96C654.167 178.96 670.986 131.188 688.69 109.956C694.591 102.584 697.247 101.699 705.509 103.469C721.738 106.418 734.721 116.149 740.622 129.714C747.704 144.753 747.704 150.061 742.097 168.934ZM730.59 320.8C721.738 333.775 699.312 349.109 685.444 351.763C678.953 352.943 669.51 351.763 660.363 348.814C652.101 346.16 638.528 344.096 629.676 344.096L614.038 344.096L618.464 333.775C626.135 315.197 622.004 269.195 611.382 258.579C603.71 251.207 590.432 219.359 586.891 201.076C580.695 167.754 589.842 136.496 610.792 119.982C616.988 115.264 623.185 111.136 624.955 111.136C629.086 111.136 632.332 130.303 629.971 140.919C628.791 145.638 624.66 151.83 620.824 155.074C615.808 159.202 614.628 161.561 616.988 163.036C619.054 164.215 623.48 161.856 627.906 156.843C634.397 149.176 634.987 146.227 633.807 127.06L632.922 105.533L647.085 102.289C664.199 98.7506 684.559 98.4557 684.559 101.699C684.559 103.174 681.608 107.007 677.772 110.546C667.74 119.982 658.298 140.919 654.167 161.856C651.806 174.831 648.856 182.203 643.839 186.332C638.528 191.05 636.168 196.653 635.282 207.564C631.152 250.617 667.74 290.722 722.623 303.402C730.885 305.171 737.671 307.53 737.671 308.415C737.671 309.594 734.425 315.197 730.59 320.8ZM701.673 694.126C679.543 692.062 645.315 676.138 615.808 653.727C586.891 631.905 588.367 628.662 627.611 628.662C651.216 628.662 662.724 627.187 672.166 623.649C678.953 620.7 685.149 618.341 685.444 618.341C685.739 618.341 685.739 623.649 685.149 629.841C683.674 644.585 692.821 664.048 708.459 679.087C714.951 685.28 719.967 691.472 719.967 692.947C719.967 694.716 712.295 695.011 701.673 694.126ZM705.214 212.577C684.264 220.834 674.231 217.295 664.199 197.538C658.298 186.332 660.068 183.973 672.461 185.742C686.034 187.511 717.016 201.076 717.016 204.91C717.016 206.679 711.705 209.923 705.214 212.577ZM695.476 591.506C690.165 599.468 682.198 606.25 674.527 609.494C657.118 617.456 626.43 622.174 612.267 619.225C600.759 616.571 600.464 616.276 598.694 601.827C596.038 580.3 591.317 568.21 580.99 556.414L571.843 546.093L579.219 556.414C583.055 562.312 588.662 573.223 591.317 580.89C596.333 595.339 597.809 615.392 593.973 615.392C592.498 615.392 585.121 611.558 576.859 607.135C564.171 600.058 561.81 597.404 557.975 584.429L553.548 569.684L552.073 579.416L550.303 589.147L539.68 577.941C528.173 565.556 519.321 552.581 519.321 547.568C519.321 546.093 526.107 544.619 534.959 544.619C563.581 544.619 593.383 533.413 608.726 517.195C616.398 508.938 618.168 508.348 643.249 507.463C668.33 506.874 670.101 507.168 680.133 515.13C708.754 537.837 714.066 564.671 695.476 591.506ZM674.822 495.963C668.625 500.091 666.56 500.091 657.118 495.963C651.216 493.604 640.299 491.539 632.627 491.539C621.709 491.539 619.349 490.655 620.824 487.116C623.775 479.154 616.693 452.614 609.021 442.293C594.858 423.716 586.301 420.472 556.204 421.356L529.648 422.241L527.878 398.65L526.402 375.059L525.812 401.009C525.222 426.075 524.927 427.254 516.37 434.626C501.321 447.012 494.24 463.525 494.83 485.642C495.125 496.258 497.19 510.707 499.846 517.784C502.502 524.862 504.567 531.939 504.567 533.708C504.567 540.785 468.569 528.4 451.455 515.425L444.373 509.822L456.471 496.847C471.815 480.039 480.962 455.563 483.027 424.6C484.798 401.304 485.093 399.83 495.715 390.098C501.616 384.496 509.878 375.649 514.304 370.341L521.681 360.905L538.795 364.148C558.86 368.277 578.334 368.572 587.776 365.033C594.268 362.674 594.563 362.969 593.383 375.649C591.022 406.612 617.578 445.832 660.953 475.616C672.166 483.283 681.608 490.065 681.608 490.655C681.608 490.95 678.362 493.309 674.822 495.963ZM638.823 503.335C623.775 503.335 619.644 502.45 619.644 498.912C619.644 495.963 622.595 494.488 627.906 494.488C636.463 494.488 658.003 499.796 658.003 501.86C658.003 502.745 649.446 503.335 638.823 503.335ZM637.348 353.238L629.971 350.289L637.938 350.289C642.069 349.994 648.265 350.879 651.216 352.058C656.232 354.122 656.232 354.417 650.626 355.302C647.085 355.597 641.184 354.712 637.348 353.238ZM620.529 746.616C617.873 749.27 612.857 752.514 609.611 753.694C599.284 757.822 569.777 760.476 560.63 758.412C552.663 756.642 551.778 755.168 551.778 745.142C551.778 736.295 553.548 732.167 560.63 726.269C571.548 717.128 590.432 711.525 601.94 714.179C622.004 718.602 631.742 735.705 620.529 746.616ZM608.431 112.905C587.186 131.188 580.105 148.291 580.4 178.96C580.4 193.114 582.465 210.513 585.121 218.769C587.776 226.731 589.547 233.514 589.252 233.809C588.957 234.398 582.17 232.629 574.203 229.975C562.991 226.142 557.975 225.847 551.483 228.206C543.516 231.45 542.926 230.86 534.074 215.231C529.058 206.384 525.222 198.717 525.812 198.422C550.598 186.922 562.105 173.947 560.04 160.677C558.86 154.189 558.565 154.484 555.024 162.741C552.958 167.754 550.893 173.652 550.598 176.011C549.713 180.434 537.32 188.396 525.517 192.23C520.501 193.704 516.075 191.64 506.633 184.268C499.846 178.665 490.699 172.177 486.273 169.228C477.421 163.626 469.159 141.214 469.159 122.636C469.159 101.405 484.798 69.8517 495.715 69.8517C498.666 69.8517 508.698 76.929 518.14 85.4807C533.484 99.0454 534.369 99.6352 526.697 89.6091C521.681 83.4165 513.124 75.4545 507.518 72.2108C501.912 68.6721 496.6 65.4284 496.01 64.8386C494.535 63.954 508.698 52.4534 517.55 47.1454C533.484 38.0039 567.417 45.0812 589.252 62.1846C600.759 71.0312 622.595 95.5068 622.595 99.3403C622.595 100.225 616.398 106.123 608.431 112.905ZM612.857 329.352C610.792 334.955 607.251 339.968 604.3 340.557C596.629 342.032 560.63 306.351 552.958 289.542C545.287 273.028 543.221 241.771 549.418 235.578C558.565 226.436 587.186 236.463 600.169 253.566C614.038 271.849 620.234 308.12 612.857 329.352ZM614.923 493.898C612.562 502.155 606.071 501.271 582.17 489.77C555.614 477.09 525.812 436.691 537.32 429.318C543.811 425.19 577.744 426.369 586.596 430.793C608.726 442.293 621.119 470.308 614.923 493.898ZM579.515 531.644C565.941 537.247 537.32 541.375 524.042 539.016C513.714 537.542 512.239 535.772 507.223 522.797C498.076 499.796 496.895 477.385 503.977 461.461C509.878 448.191 520.796 435.511 526.697 435.511C528.173 435.511 532.894 441.998 536.73 450.255C547.942 474.141 571.548 492.424 606.366 504.809C611.677 506.579 611.382 507.758 600.464 517.195C593.973 523.092 584.531 529.285 579.515 531.644ZM589.842 359.725C579.219 365.328 557.384 365.033 533.189 358.546C523.452 355.892 522.271 354.712 524.042 349.109C525.222 345.571 526.402 334.07 526.402 323.454C526.697 310.184 528.173 301.927 532.008 296.914C534.664 293.081 537.025 288.068 537.025 286.004C537.025 278.042 541.746 282.76 548.532 296.914C555.909 312.248 584.826 342.032 596.038 345.571C604.3 348.225 602.235 353.238 589.842 359.725ZM590.432 631.316C587.481 633.085 576.564 622.174 578.924 619.52C580.99 617.751 593.088 624.533 593.088 627.777C593.088 628.957 591.907 630.431 590.432 631.316ZM577.744 652.842C561.22 668.766 531.713 679.382 526.402 671.125C525.517 669.356 521.386 668.766 517.255 669.946C510.764 671.42 510.173 670.83 511.944 666.407C517.55 651.958 516.96 639.867 509.288 623.649C502.797 609.789 497.781 604.481 480.962 592.98C464.143 581.48 457.356 578.826 444.078 577.646C435.226 577.056 427.259 575.582 426.669 574.402C426.079 573.518 425.194 561.722 424.604 548.158C423.718 526.336 424.308 523.682 429.915 519.554C435.816 515.425 437.292 516.015 451.455 525.451C466.208 535.183 476.241 539.016 499.256 542.85C508.403 544.619 511.354 546.978 519.025 560.543C523.747 569.389 534.959 583.544 543.516 592.096C559.155 607.725 586.596 638.983 586.891 642.226C587.186 643.111 582.76 647.829 577.744 652.842ZM537.025 263.002C537.025 273.028 534.959 281.285 530.238 288.952L523.452 300.158L512.534 282.465C498.666 260.348 481.847 245.604 460.602 237.642C446.734 232.334 439.357 231.744 416.047 232.629L388.015 234.103L387.72 217C387.72 206.679 385.95 197.538 382.999 192.819C376.802 183.973 377.983 179.255 394.212 148.291C400.998 134.727 407.785 117.034 408.67 109.366C409.85 101.405 413.096 92.5579 415.456 89.6091C424.308 79.5829 454.701 66.9028 469.749 66.9028L483.912 66.9028L476.831 78.1085C466.208 94.6222 462.372 109.956 463.848 130.303C466.503 162.741 486.273 194.589 506.042 198.422C511.354 199.307 518.435 203.14 521.681 206.384C530.828 216.705 539.975 235.873 538.5 242.36C537.615 245.604 537.025 255.04 537.025 263.002ZM516.37 347.93C515.19 349.404 511.649 349.699 508.698 348.814C501.912 346.75 484.798 333.185 486.863 331.711C487.748 331.121 495.125 326.403 503.682 321.39C516.96 313.428 519.025 312.838 520.501 316.967C522.271 323.749 519.616 344.981 516.37 347.93ZM498.076 318.736C481.552 327.877 481.257 327.877 476.831 321.98C474.47 318.736 471.519 312.543 470.634 308.12C469.454 303.697 467.389 299.273 465.913 298.094C462.372 296.03 465.618 310.184 470.929 320.8C472.995 325.223 473.88 329.352 472.995 330.531C468.864 334.66 438.767 332.006 423.128 326.108C403.359 318.736 384.769 301.338 376.507 282.76C371.491 271.554 371.196 269.195 374.737 263.592C377.098 260.053 380.638 253.566 382.704 249.143C385.95 242.95 390.081 240.591 403.359 237.937C425.194 233.219 442.898 235.873 465.323 246.784C488.633 258.284 517.55 292.196 515.485 305.466C515.19 307.825 507.223 313.723 498.076 318.736ZM498.666 376.534C490.404 384.496 482.437 391.278 480.962 391.278C479.486 391.278 476.241 387.739 473.88 383.316C463.553 363.559 426.374 337.019 392.441 324.929C385.064 322.275 371.196 319.621 361.754 319.031C344.64 317.851 344.05 317.556 339.919 307.235C337.558 301.338 336.083 296.325 336.673 295.735C337.263 295.44 344.64 290.427 352.902 284.529L367.655 274.208L374.737 288.657C386.245 313.133 409.555 328.762 443.193 334.66C451.75 336.134 463.848 336.724 470.044 336.134C478.601 334.955 483.027 336.134 487.748 340.557C491.289 343.801 498.666 348.519 503.977 351.173C508.993 353.827 513.419 357.366 513.419 358.84C513.419 360.315 506.633 368.277 498.666 376.534ZM506.338 666.997C501.026 679.087 496.01 679.677 472.11 671.42C463.258 668.471 455.586 666.407 454.996 666.997C452.93 668.766 465.913 674.369 481.257 678.203L496.305 682.331L487.158 692.652C476.831 704.447 456.766 714.179 436.111 717.128C411.916 720.666 410.735 719.487 411.916 688.229C412.506 673.189 411.621 659.035 410.145 656.676C408.67 654.317 407.194 653.727 406.899 655.201C406.899 656.971 405.719 655.496 404.244 652.253C402.473 648.419 401.883 653.137 402.178 666.997C402.473 678.497 403.359 688.229 404.539 689.113C405.719 689.998 405.129 695.601 403.359 701.793C399.818 712.704 399.523 712.999 389.49 711.23C375.622 708.576 351.722 696.485 341.099 686.754C330.477 676.728 315.723 654.317 315.723 647.829C315.723 643.996 319.264 642.816 332.542 642.521C352.902 641.931 367.36 637.508 380.048 628.072C390.966 619.815 393.621 620.995 397.752 636.034C400.408 645.175 400.408 644.585 399.523 629.546C399.228 620.11 399.523 612.443 400.703 612.443C402.178 612.443 406.014 618.341 409.555 625.713C413.096 633.085 417.227 638.983 418.702 638.983C419.882 638.983 418.112 632.79 414.276 625.123C405.424 608.02 405.424 606.25 415.161 591.506C423.128 579.416 423.128 579.416 437.882 581.185C454.996 582.954 485.388 597.109 494.83 607.135C510.468 623.649 514.599 646.65 506.338 666.997ZM502.207 191.05C496.01 187.806 488.043 178.96 490.994 178.96C494.24 178.96 507.223 188.986 507.518 191.64C507.518 192.819 505.157 192.524 502.207 191.05ZM465.323 460.871C461.192 468.833 452.93 480.039 447.029 485.642C435.226 497.142 433.456 496.258 427.849 476.795C423.128 459.692 424.308 443.178 431.095 434.331C436.111 428.139 436.406 426.664 432.57 426.664C420.473 426.664 414.276 468.538 423.128 489.77C426.079 497.142 426.374 500.681 424.013 503.04C418.702 508.348 416.342 507.168 400.703 489.77C380.048 467.359 367.065 461.461 336.968 459.692C309.822 458.217 289.167 464.41 289.167 473.846C289.167 477.975 285.331 479.154 269.693 480.629C258.775 481.808 243.136 485.642 233.989 490.065C224.842 494.193 216.875 497.437 215.695 497.437C214.515 497.437 212.154 493.309 210.384 488.296C207.138 480.334 207.728 477.68 215.99 464.705C236.055 431.972 237.235 405.138 219.826 379.482C214.22 371.226 210.384 364.738 210.679 364.738C211.269 364.738 216.875 366.802 223.072 369.456C238.12 375.649 275.299 373.88 299.495 365.328C315.428 360.02 317.494 359.725 319.854 363.854C325.756 374.764 342.87 390.688 356.148 397.765C382.999 412.215 436.701 417.523 462.962 408.087L475.945 403.368L474.175 424.895C473.29 439.639 470.339 451.14 465.323 460.871ZM459.717 400.714C452.635 402.779 433.751 404.548 417.522 404.548C377.688 404.548 361.459 398.65 338.444 376.239L320.739 359.43L331.657 348.225C337.558 342.327 342.279 335.544 342.279 333.48C342.279 326.993 347.296 326.108 367.655 329.352C404.834 335.25 447.324 357.956 463.553 380.367C468.274 386.855 472.11 393.342 472.11 394.522C472.11 395.996 466.503 398.65 459.717 400.714ZM406.309 579.71C401.883 585.018 398.342 591.211 398.342 593.275C398.342 595.634 394.507 600.058 390.081 603.301C382.999 608.314 380.048 608.609 368.541 606.25C353.197 602.712 327.526 605.071 319.854 610.968C313.068 615.981 300.085 616.571 275.889 612.148C255.824 608.609 250.513 603.891 226.318 568.8C216.875 555.235 215.99 552.286 218.646 545.209C220.416 540.785 221.006 529.875 219.826 520.438C218.351 505.104 218.646 503.335 224.842 499.206C235.17 492.719 262.021 485.642 276.774 485.642C288.577 485.642 290.938 486.821 301.855 498.912C313.363 512.181 332.837 524.272 348.771 528.105C354.377 529.285 357.623 532.824 359.984 540.196C364.41 554.055 369.131 556.414 365.295 542.85C363.819 536.952 362.934 531.939 363.524 531.349C364.41 530.464 408.67 528.99 414.276 529.58C415.456 529.875 416.342 539.016 415.456 549.927C414.571 566.735 413.096 571.748 406.309 579.71ZM379.163 517.489L356.443 518.964L342.87 505.399C328.706 491.834 317.199 485.052 303.33 481.513C291.823 478.859 293.003 471.487 305.986 465.884C326.051 457.627 362.934 465.884 383.589 483.283C394.211 492.129 406.899 510.707 404.244 513.361C402.768 514.835 391.556 516.605 379.163 517.489ZM395.392 100.815C388.9 104.648 377.393 132.368 375.327 149.471C373.852 159.202 372.081 168.049 371.196 168.934C370.016 169.818 358.803 163.331 346.115 154.484C333.427 145.343 310.707 132.073 295.659 124.995L268.512 111.726L278.545 108.187C296.544 102.289 312.773 77.8136 312.773 56.8767C312.773 48.9147 300.97 25.6187 296.249 23.5545C293.888 22.6698 292.118 20.6056 292.118 19.1312C292.118 14.1181 326.051 18.8363 345.525 26.7983C368.836 36.2346 380.343 44.4914 390.671 58.646C403.654 76.929 405.719 94.3273 395.392 100.815ZM395.687 129.419C391.556 140.33 382.999 153.01 381.524 151.24C379.458 149.176 389.785 119.393 395.097 112.02C404.539 98.7506 404.834 106.418 395.687 129.419ZM386.54 731.577C367.655 747.206 334.313 751.924 302.74 743.078C288.282 739.244 281.79 735.116 269.988 723.32C253.169 706.512 243.136 681.741 246.677 666.702C249.628 654.317 262.316 630.136 265.562 630.136C267.332 630.136 273.528 632.2 279.43 634.559C285.036 636.918 293.003 638.983 296.544 638.983C302.15 638.983 305.101 642.226 310.707 654.907C323.985 683.805 347.296 703.563 381.228 714.768C388.9 717.128 395.392 720.371 395.392 721.551C395.392 723.025 391.261 727.449 386.54 731.577ZM358.508 622.469C338.444 631.905 314.838 633.38 316.313 625.123C316.904 622.174 321.625 618.635 326.936 616.866C331.952 615.392 336.378 613.033 336.378 611.853C336.378 609.199 363.229 608.609 370.016 611.263C372.671 612.148 374.737 613.328 374.737 613.917C374.737 614.212 367.36 618.046 358.508 622.469ZM349.951 186.332C331.362 197.243 311.887 198.717 287.102 191.345C250.513 180.139 232.219 157.138 239.301 131.188C244.612 111.136 261.726 112.315 307.166 135.316C334.313 149.176 362.934 170.113 362.934 176.011C362.934 177.485 357.033 182.203 349.951 186.332ZM328.411 509.527C322.215 506.284 313.363 500.091 308.347 495.963C300.675 489.475 300.085 488.591 305.396 488.591C311.592 488.591 317.199 491.834 336.083 505.694C348.771 515.13 343.755 517.489 328.411 509.527ZM330.477 343.506C323.1 355.302 318.674 355.597 318.674 344.096C318.674 335.839 325.165 329.352 333.132 329.352C337.853 329.352 337.263 332.596 330.477 343.506ZM294.478 287.478C265.562 285.414 250.513 279.811 234.875 265.067C223.072 253.566 210.974 231.155 213.925 226.142C216.875 221.423 230.448 222.898 244.022 229.09C269.102 240.296 318.674 278.042 318.674 286.003C318.674 287.773 309.822 288.363 294.478 287.478ZM307.166 626.597C305.396 629.841 302.15 629.841 290.347 626.892C277.364 623.354 276.774 622.764 283.266 620.995C293.298 618.046 309.822 617.751 309.822 620.7C309.822 621.879 308.642 624.533 307.166 626.597ZM293.593 83.1216C282.381 97.8659 266.447 105.238 245.497 105.238C222.777 105.238 215.4 99.6352 213.335 81.6471C211.564 64.8386 221.301 44.7863 235.76 35.0551C248.743 26.7982 274.709 18.8363 281.79 21.4903C284.446 22.6698 290.938 29.7471 295.659 37.1193C306.281 53.6329 305.691 67.7875 293.593 83.1216ZM239.005 640.162C236.055 645.47 230.153 651.368 226.022 653.432C219.826 656.971 217.761 656.676 208.908 649.893C203.597 646.06 190.614 638.098 179.992 632.79C163.468 623.943 160.812 621.584 160.222 613.917C159.632 606.545 161.107 603.891 169.959 598.583C175.566 594.75 181.467 591.801 182.942 591.801C184.418 591.801 192.09 595.929 199.761 600.647C207.433 605.66 219.236 610.968 225.727 612.738C232.219 614.212 239.301 616.276 241.366 616.866C246.677 618.635 245.792 629.546 239.005 640.162ZM233.989 600.942C231.039 599.468 223.072 592.391 216.285 585.313C203.892 572.928 203.892 572.633 209.204 565.851L214.515 558.774L226.613 579.121C240.186 601.532 241.366 605.071 233.989 600.942ZM237.53 688.524C237.235 687.934 234.284 682.036 231.039 675.549L224.842 663.163L231.629 660.214C238.415 656.971 238.415 657.266 238.415 673.189C238.415 682.036 237.825 688.818 237.53 688.524ZM224.547 727.743C216.875 735.411 213.925 736.295 197.106 736.295C167.304 736.295 140.158 720.076 129.24 696.191C126.584 690.588 128.06 687.934 138.977 676.728C146.059 669.946 153.436 661.689 154.911 658.74C157.567 653.727 158.747 654.022 173.795 661.099C185.303 666.702 193.27 668.766 203.007 668.176C217.761 666.997 221.301 670.535 228.973 691.178C235.17 708.871 233.989 718.012 224.547 727.743ZM206.843 554.35C200.942 563.492 199.466 562.902 196.221 548.452C194.155 538.131 203.597 512.181 209.204 512.181C214.81 512.181 213.039 545.209 206.843 554.35ZM202.122 587.083C197.991 584.429 195.63 581.185 196.516 579.416C197.401 577.941 200.647 578.826 203.892 581.775C211.859 589.147 210.679 592.685 202.122 587.083ZM196.221 661.984C179.402 659.92 162.288 647.534 162.288 637.213C162.288 630.136 162.288 630.136 172.025 634.854C187.959 643.111 209.499 657.855 209.499 660.804C209.499 662.279 203.597 662.574 196.221 661.984ZM183.828 480.923C177.631 483.872 163.763 487.116 153.141 488.001C127.47 489.77 107.7 483.283 89.9959 467.064C68.4559 447.306 66.9805 427.549 86.4551 419.292C98.8479 414.279 113.601 417.228 143.403 430.793C164.353 440.524 194.745 465 194.745 472.372C194.745 474.141 189.729 477.975 183.828 480.923ZM159.927 319.915C158.157 322.569 152.255 321.39 134.846 314.018C122.453 309.005 112.126 303.697 112.126 302.812C112.126 301.632 117.437 298.389 123.929 295.44C130.715 292.491 140.453 284.824 146.059 278.631C151.665 272.439 156.976 267.426 157.567 267.426C161.402 267.426 163.468 314.313 159.927 319.915ZM144.584 347.34C109.175 380.957 38.3589 364.148 38.3589 321.98C38.3589 315.197 40.1293 308.12 42.1948 306.351C44.2603 304.581 56.9482 304.286 76.7178 305.466C103.864 307.53 110.651 309.005 132.191 319.031C145.469 325.223 156.386 331.416 156.386 333.185C156.386 334.955 151.075 341.147 144.584 347.34ZM140.453 274.208C121.863 293.376 103.274 298.684 70.8164 294.555C51.3419 292.196 44.5553 289.837 35.9983 283.055C15.6386 266.836 6.19643 234.103 15.9337 214.641C22.1301 202.845 36.8836 193.704 49.5715 193.704C62.8496 193.704 99.7331 202.256 110.651 207.859C132.191 218.769 153.436 242.655 153.436 256.22C153.436 258.874 147.534 266.836 140.453 274.208ZM113.011 592.096C88.5205 585.313 73.472 570.274 69.3411 548.158C66.3904 532.234 72.2918 528.105 87.0452 536.067C105.93 546.093 123.929 562.017 134.256 578.236L143.993 593.275L134.256 594.16C128.65 594.75 119.208 593.57 113.011 592.096Z" fill="#F8FAFC"/>
</svg>
